<?xml version="1.0" encoding="UTF-8"?>
<svg width="500px" height="165px" viewBox="0 0 500 165" version="1.1" xmlns="http://www.w3.org/2000/svg" xmlns:xlink="http://www.w3.org/1999/xlink">
    <!-- Generator: Sketch 51.3 (57544) - http://www.bohemiancoding.com/sketch -->
    <title>Untitled</title>
    <desc>Created with Sketch.</desc>
    <defs>
        <linearGradient x1="15.540083%" y1="32.898289%" x2="103.201819%" y2="76.4014314%" id="linearGradient-1">
            <stop stop-color="#FFFFFF" offset="0%"></stop>
            <stop stop-color="#C4C4C4" offset="43.91%"></stop>
            <stop stop-color="#F8F8F8" offset="100%"></stop>
        </linearGradient>
        <linearGradient x1="-408.263352%" y1="-177.42005%" x2="-320.602198%" y2="-133.916907%" id="linearGradient-2">
            <stop stop-color="#FFFFFF" offset="0%"></stop>
            <stop stop-color="#C4C4C4" offset="43.91%"></stop>
            <stop stop-color="#F8F8F8" offset="100%"></stop>
        </linearGradient>
    </defs>
    <g id="Page-1" stroke="none" stroke-width="1" fill="none" fill-rule="evenodd">
        <g id="tesla-car-svg-by-Vexels" fill-rule="nonzero">
            <path d="M125,50.423892 C125,50.423892 175.491202,16.4116071 235,6 C209.908282,14.1966486 141.516945,51.857454 140.851206,52.521641 C140.185467,53.1863289 126.640247,52.9644323 126.640247,52.9644323 L125,50.423892 Z" id="Shape" fill="#5CADCE"></path>
            <path d="M2,130.108087 C2,130.108087 3.95640857,139.366573 17.2791908,144.1935 C29.2736957,148.539067 45.4980839,148.52177 48.2646617,146.959086 C51.0312395,145.396401 54.9485575,146.270654 54.9485575,146.270654 C54.9485575,146.270654 114.599515,138.577324 110.328123,139.466898 C104.340872,140.713784 104.459897,148.376473 108.412723,147.985555 C112.365048,147.594637 368.391515,133.9891 380.683082,144.507816 C389.345391,147.602544 385.776146,144.168295 385.776146,144.168295 L453.36226,137.919039 C453.36226,137.919039 474.705218,138.309463 486.957276,129.717169 C499.209335,121.124381 500,118 500,118 C500,118 471.542057,128.154979 462.452159,129.326745 C453.36226,130.498511 365.619437,128.154485 363.643024,127.764061 C361.666611,127.373636 269.576379,122.686571 269.576379,122.686571 C269.576379,122.686571 168.790832,123.467913 168.395249,121.124381 C168.000167,118.780848 97.6479747,130.107099 98.4381397,128.545403 C99.2283047,126.983212 28.4805301,126.592294 28.4805301,126.592294 L2,130.108087 Z" id="Shape" fill="#222223"></path>
            <path d="M144,50.2796934 C145.130083,49.4222783 195.130898,7.09604683 279.595507,3.37822605 C364.059617,-0.339594731 432.422411,24.5410894 432.987204,25.9707876 C433.552494,27.4014951 415.275258,44.7673062 400.685373,49.0962687 C386.093992,53.4252312 144.565291,56 144.565291,56 L144,50.2796934 Z" id="Shape" fill="#222223"></path>
            <path d="M182.555225,52.4956586 C182.555225,52.4956586 166.580138,66.3311537 184.507046,52.4956586 C225.075677,21.1845583 302.313303,14.9994474 359.655675,29.3023612 C360.045739,43.2187366 359.265612,44.7648903 359.265612,44.7648903 L367.066886,45.1514287 L367.847514,30.4619765 C367.847514,30.4619765 392.031966,35.4874721 401.004434,39.7393947 C409.976901,43.9913173 404.124943,48.6302745 404.124943,48.6302745 L216.103711,61 L182.555225,52.4956586 Z" id="Shape" fill="#5CADCE"></path>
            <path d="M481,163.312629 C481,162.208998 378.909653,157 250.779139,157 C122.649625,157 17,162.20849 17,163.312629 C17,164.417276 121.108639,163.858861 249.238653,163.858861 C377.368667,163.858861 481,164.417276 481,163.312629 Z" id="Shape" fill="#000000" opacity="0.3"></path>
            <g id="Group" transform="translate(18.000000, 68.000000)" fill="#000000">
                <path d="M14.7925,70.619 L24.4275,66.2605 L99.672,63.049 L110.2245,69.014 C110.2245,69.014 115.2715,63.05 116.877,60.297 C118.483,57.544 95.5425,0.422 94.8545,0.422 C94.166,0.422 37.962,5.239 37.962,5.239 C37.962,5.239 3.9205,24.7155 4.424,24.9565 C4.9275,25.1975 -0.1195,50.432 0.3395,52.267 C0.799,54.103 14.7925,70.619 14.7925,70.619 Z" id="Shape"></path>
                <path d="M348.5755,67.637 C349.2625,67.407 358.2105,64.654 359.816,64.4255 C361.4215,64.1955 434.602,61.214 434.372,61.214 C434.1435,61.214 443.7775,65.114 443.7775,65.114 C443.7775,65.114 449.5125,59.379 449.5125,58.6905 C449.5125,58.002 437.355,10.7455 437.355,10.7455 L379.773,3.634 C379.773,3.634 347.887,15.5625 346.969,16.7095 C346.051,17.8565 334.8105,44.2385 334.8105,44.2385 L348.5755,67.637 Z" id="Shape"></path>
            </g>
            <g id="Group">
                <path d="M287.9855,5.1795 C287.9855,5.1795 281.079,38.3565 273.022,47.759 C278.42,48.1005 292.7235,46.513 292.7235,46.513 L300.327,4.95149393 C300.327,4.951 290.82,4.981 287.9855,5.1795 Z" id="Shape" fill="#2E2E2F"></path>
                <path d="M494.9245,90.386 C491.105,85.367 489.27,74.584 490.0015,69.9335 C490.733,65.2845 489.3505,59.3105 489.3505,59.3105 C489.3505,59.3105 487.258,49.441 485.3135,47.478 C483.367,45.5135 486.1765,45.0075 488.965,43.502 C491.7545,41.9955 489.365,40.4945 487.5455,40.437 C485.727,40.3795 482.342,40.1315 482.342,40.1315 C477.1735,39.76 464.3965,33.8965 426.382,20.758 C388.37,7.623 347.823,-2.887 273.2945,1.0745 C198.764,5.037 152.5465,42.96 142.093,48.549 C131.6395,54.1395 125.008,50.743 125.008,50.743 C125.008,50.743 125.008,50.743 120.5565,51.06 C111.4015,50.7605 108.127,51.29 87.5585,55.424 C59.6635,56.645 37.993,64.554 28.0385,71.7775 C12.851,75.1085 1.9895,83.99 1.9895,83.99 C-0.7955,86.7045 0.402,86.236 0.0255,88.32 C-0.351,90.4045 3.561,105.3875 3.561,105.3875 C3.561,105.3875 0.4125,114.793 2.6095,115.6865 C4.8065,116.579 5.451,117.7095 7.3015,122.3475 C-4.1105,128.478 2.494,131.8855 7.532,134.803 C12.5705,137.7195 25.822,141.214 32.546,139.842 C28.3365,125.591 31.261,109.7555 34.054,103.5765 C36.8475,97.3995 44.8655,76.171 77.5775,76.3955 C122.8915,78.6715 125.8455,125.9645 125.636,131.471 C125.711,135.5215 126.6205,137.206 126.6205,137.206 C126.6205,137.206 127.961,138.238 131.12,137.651 C139.0085,135.6545 337.63,133.8215 337.63,133.8215 C337.63,133.8215 355.33,133.7585 361.98,136.2765 C368.632,138.7955 368.0995,133.184 368.621,126.994 C369.1425,120.8025 374.1615,77.806 414.7005,77.691 C459.186,79.684 459.4455,123.128 459.058,126.68 C458.669,130.233 457.3015,134.984 467.1675,132.711 C477.0335,130.4375 484.1465,126.7605 484.1465,126.7605 C484.1465,126.7605 490.5335,118.188 491.93,115.0725 C493.3265,111.956 492.487,110.789 492.487,110.789 C492.487,110.789 494.1875,104.486 496.2745,99.3565 C498.3595,94.2305 498.072,93.4175 494.9245,90.386 Z M421.3815,27.9755 C420.5505,29.1255 411.5045,38.8005 385.993,40.5515 C360.4815,42.3015 259.8365,48.423 259.8365,48.423 C259.8365,48.423 225.5945,49.528 194.466,50.118 L167.5825,50.644 C160.1735,50.772 155.912,50.866 153.3025,50.6825 C153.3025,50.6825 202.8485,13.4345 255.972,8.334 C302.2865,3.503 341.714,2.062 406.2355,22.437 C421.0875,27.413 422.211,26.824 421.3815,27.9755 Z" class="mainSvg" fill="#000000"></path>
                <path d="M54.273,63.2615 C54.273,63.2615 38.9105,73.3365 30.508,78.2425 C22.105,83.15 22.105,83.15 22.105,83.15 C22.105,83.15 15.0615,83.711 15.493,83.7035 C15.925,83.6945 21.7155,77.6855 30.396,72.197 C39.0765,66.71 50.1075,63.771 54.273,63.2615 Z" id="Shape" fill="#F36C28"></path>
                <path d="M4.267,106.5475 C4.23,106.267 15.5135,106.8115 16.8375,106.882 C18.161,106.9505 18.8155,106.5615 18.189,108.462 C17.563,110.3635 17.42,112.8215 17.42,112.8215 C17.42,112.8215 13.7405,113.078 10.7955,112.1885 C10.7955,112.1885 8.7525,111.0825 7.237,110.804 C5.7225,110.526 4.527,108.5785 4.267,106.5475 Z" id="Shape" fill="#F36C28"></path>
                <path d="M167.4825,50.1355 C167.4825,50.1355 170.351,44.122 173.283,41.514 C176.215,38.9045 177.468,37.604 182.3075,38.3665 C187.147,39.1275 189.543,38.232 190.208,43.4715 C190.8725,48.7095 192.452,49.673 190.6285,50.842 C188.8045,52.011 187.965,52.5945 188.4135,53.8635 C188.863,55.132 177.3325,53.2185 176.069,53.951 C174.8055,54.6835 174.687,55.963 175.4385,58.22 C168.056,58.072 160.38,57.3635 160.38,57.3635 C160.38,57.3635 170.249,53.9165 168.3925,53.2425 C166.5345,52.565 167.4825,50.1355 167.4825,50.1355 Z" id="Shape" fill="#D3D5D6"></path>
                <path d="M246.4725,62.4375 C246.87,62.23 256.687,62.2485 259.237,62.0595 C261.789,61.8695 262.631,61.4285 263.473,60.844 C264.314,60.2605 265.318,60.81 267.445,60.771 C269.572,60.73 269.182,62.584 267.351,63.3275 C265.519,64.071 246.226,64.428 246.226,64.428 C246.226,64.428 244.224,63.613 246.4725,62.4375 Z" id="Shape" fill="#797A7D"></path>
                <path d="M364.3255,58.2655 C364.723,58.058 374.5395,58.0765 377.0905,57.8865 C379.6415,57.6975 380.4845,57.257 381.3265,56.6735 C382.1675,56.0915 383.1705,56.6405 385.2985,56.5995 C387.4265,56.561 387.0355,58.4125 385.2035,59.157 C383.373,59.9005 364.0795,60.2575 364.0795,60.2575 C364.0795,60.2575 362.077,59.4435 364.3255,58.2655 Z" id="Shape" fill="#797A7D"></path>
                <path d="M54.273,63.2615 C55.081,63.097 89.4465,58.534 140.951,58.006 C140.952,58.006 161.107,58.2005 161.107,58.2005 C161.107,58.2005 143.6025,55.5445 114.6595,55.939 C87.226,56.3135 65.772,56.0945 50.198,61.8165 C35.9615,67.0465 30.644,71.12 30.644,71.12 C30.644,71.12 43.7435,65.403 54.273,63.2615 Z" id="Shape" fill="#FFFFFF"></path>
                <path d="M151.1145,118.2895 C150.4035,118.4365 213.7765,116.4225 279.957,114.3155 C325.716,112.763 355.226,108.5175 355.226,108.5175 C355.226,108.5175 335.1725,100.26 287.1585,103.792 C239.1445,107.3235 172.518,113.842 151.1145,118.2895 Z" id="Shape" fill="#FFFFFF"></path>
                <path d="M458.956,49.952 C459.02,49.951 459.2125,49.9485 459.515,49.943 C463.414,49.8845 485.5025,49.572 485.815,49.5665 C486.153,49.56 491.3535,57.2205 489.84,66.5795 C484.2355,67.469 480.7185,65.7365 473.3275,61.1515 C465.934,56.5675 459.2125,49.9485 459.2125,49.9485" id="Shape" fill="#F36C28"></path>
                <path d="M337.228,55.108 C335.938,55.3955 349.6145,53.558 366.7615,52.1825 C383.907,50.809 461.792,48.309 477.118,48.553 C472.324,46.982 467.9415,46.158 461.5455,42.791 C453.5965,38.6045 401.468,43.3505 395.4235,45.0475 C389.3805,46.7445 357.668,50.575 337.228,55.108 Z" id="Shape" fill="#FFFFFF"></path>
                <g opacity="0.3" transform="translate(26.000000, 2.500000)" id="Shape">
                    <path d="M121.444,49.772 C117.9165,53.113 115.649,58.879 115.044,66.1155 C114.012,78.4685 114.552,112.2485 118.038,127.873 L118.5635,127.757 C115.147,112.441 114.5775,78.17 115.581,66.161 C116.1995,58.761 118.5665,52.9365 122.246,49.7625 C122.2785,49.736 122.303,49.714 122.3285,49.6905 C122.7545,49.643 123.173,49.5845 123.5685,49.505 L123.4625,48.978 C118.903,49.895 111.5675,48.505 111.494,48.491 L111.3925,49.02 C111.62,49.063 115.6855,49.834 119.673,49.834 C120.2695,49.834 120.863,49.812 121.444,49.772 Z" fill="#FFFFFF"></path>
                    <path d="M459.7955,65.1775 C459.779,65.2925 458.2,76.7085 457.1705,80.9375 C456.1985,84.9325 454.8725,86.601 444.7135,88.277 C434.958,89.888 424.3,90.5365 423.646,90.372 L423.549,90.623 L423.4045,90.8495 C423.482,90.899 423.799,90.9225 424.3105,90.9225 C427.311,90.9225 437.017,90.094 444.8015,88.809 C454.766,87.165 456.591,85.5985 457.6935,81.0655 C458.73,76.811 460.314,65.367 460.3285,65.2525 L459.7955,65.1775 Z" fill="#B6B8BA"></path>
                    <path d="M403.095,25.2355 C402.432,26.321 396.2255,35.255 370.1515,38.9485 C369.8545,38.2745 369.6145,37.6855 369.4455,37.268 C369.312,36.9385 369.218,36.711 369.1705,36.6205 L368.6945,36.8705 C368.7375,36.9545 368.8225,37.1655 368.9465,37.47 C369.1065,37.862 369.3265,38.405 369.5985,39.0245 C367.559,39.305 365.4045,39.5545 363.12,39.764 C344.197,41.5045 296.932,44.567 256.0775,47.024 C256.232,46.361 256.37,45.789 256.484,45.327 L256.53,45.137 L256.0055,45.0165 L255.961,45.199 C255.838,45.6985 255.6875,46.3225 255.516,47.0585 C224.165,48.942 196.6925,50.4645 188.8725,50.7485 C170.264,51.427 163.318,51.228 163.278,51.226 L163.2595,51.403 L163.2555,51.224 L163.088,51.2285 L162.9385,51.5025 L163.021,51.636 C163.0465,51.677 163.0685,51.712 163.2665,51.74 L163.267,51.762 L163.2665,51.74 C163.556,51.7785 164.2225,51.801 165.8325,51.801 C166.6635,51.801 167.7465,51.7955 169.159,51.7835 C172.8715,51.7495 179.309,51.6375 188.8925,51.2885 C196.701,51.0035 224.099,49.4865 255.3905,47.606 C253.6945,54.9885 250.2355,72.1085 249.4845,91.7355 C248.6565,113.3685 249.7465,122.9625 250.043,125.0905 C233.215,125.4165 218.9015,125.6815 218.592,125.688 L99.576,128.3195 L99.588,128.8585 L218.6035,126.2255 C219.273,126.212 285.7415,124.979 301.0255,124.556 C316.7145,124.1205 318.4345,123.2245 331.719,108.576 C345.17,93.7415 371.9385,57.6765 375.2685,52.9645 C378.351,48.608 377.719,47.8325 375.261,46.0385 C374.985,45.8365 374.6865,45.6185 374.3705,45.3755 C372.7155,44.0995 371.3155,41.4985 370.382,39.4585 C396.576,35.7065 402.88,26.6205 403.554,25.516 L403.342,25.348 L403.095,25.2355 Z M374.042,45.8015 C374.3625,46.049 374.664,46.27 374.9445,46.4745 C377.1575,48.0885 377.752,48.523 374.8295,52.655 C371.5015,57.3625 344.7565,93.397 331.3195,108.2155 C318.181,122.703 316.482,123.59 301.0105,124.019 C292.8535,124.2445 270.117,124.7005 250.586,125.0795 C250.3105,123.154 249.185,113.6425 250.0225,91.7565 C250.7775,72.0325 254.2715,54.848 255.9495,47.5715 C296.8485,45.112 344.2175,42.043 363.1695,40.301 C365.5195,40.0845 367.7325,39.827 369.826,39.5365 C370.7815,41.6475 372.2565,44.427 374.042,45.8015 Z" fill="#FFFFFF"></path>
                    <path d="M195.9695,11.0145 C235.3805,-0.669 274.717,0.669 295.8485,1.3875 L298.5635,1.4785 C299.0065,1.496 343.5905,3.4605 397.7765,22.4335 C398.0395,22.5525 398.3025,22.671 398.5655,22.7895 L398.846,23.1805 C398.9165,23.1285 398.9785,23.0645 399.047,23.0065 C428.341,36.214 454.303,47.5715 454.566,47.6875 L454.7815,47.1935 C454.5185,47.0785 428.6735,35.772 399.4405,22.595 C400.1155,21.757 400.4935,20.584 400.7595,19.7445 C400.862,19.424 400.9895,19.024 401.0545,18.947 L400.858,18.762 L400.6645,18.575 C400.524,18.7205 400.4305,19.004 400.247,19.5815 C399.982,20.4195 399.5975,21.6115 398.9335,22.3655 C398.614,22.223 398.296,22.079 397.9765,21.9345 C343.689,2.9245 299.0295,0.9585 298.583,0.941 L295.8665,0.85 C274.705,0.1295 235.3115,-1.21 195.8165,10.499 C154.9825,22.6055 123.6665,48.1685 123.355,48.425 L123.697,48.8405 C124.008,48.5835 155.239,23.09 195.9695,11.0145 Z" fill="#FFFFFF"></path>
                    <path d="M0.3305,78.655 L0.3715,79.193 C0.489,79.183 12.174,78.3005 15.3755,78.7755 C18.5885,79.2495 24.42,80.89 24.4785,80.9065 L24.6245,80.3885 C24.5655,80.372 18.7015,78.7225 15.454,78.243 C12.194,77.759 0.8135,78.619 0.3305,78.655 Z" fill="#FFFFFF"></path>
                </g>
                <g transform="translate(26.000000, 2.500000)" id="Shape">
                    <path d="M121.4155,49.4935 C117.888,52.8335 115.6205,58.6005 115.016,65.838 C113.984,78.1885 114.5235,111.969 118.01,127.5945 L118.535,127.4785 C115.1185,112.1615 114.549,77.893 115.5525,65.8835 C116.1715,58.481 118.538,52.6575 122.2175,49.4835 C122.25,49.456 122.2745,49.435 122.3,49.4115 C122.726,49.364 123.145,49.3055 123.54,49.226 L123.434,48.698 C118.8745,49.615 111.5395,48.226 111.4655,48.212 L111.364,48.74 C111.591,48.784 115.6565,49.5545 119.644,49.5545 C120.241,49.5545 120.8345,49.5335 121.4155,49.4935 Z" fill="#B6B8BA"></path>
                    <path d="M459.768,64.899 C459.7515,65.013 458.1715,76.43 457.142,80.658 C456.17,84.654 454.845,86.3225 444.685,87.9985 C434.9295,89.608 424.2725,90.259 423.6175,90.093 L423.5215,90.3425 L423.3755,90.569 C423.454,90.6185 423.77,90.644 424.2825,90.644 C427.283,90.644 436.989,89.8145 444.7725,88.5285 C454.737,86.8855 456.562,85.319 457.6645,80.786 C458.701,76.53 460.284,65.0875 460.3005,64.973 L459.768,64.899 Z" fill="#A9ABAE"></path>
                    <path d="M403.0675,24.9565 C402.4035,26.042 396.1975,34.9765 370.124,38.67 C369.827,37.9955 369.587,37.407 369.417,36.9895 C369.2835,36.66 369.1905,36.4325 369.142,36.342 L368.666,36.5915 C368.71,36.6755 368.7955,36.8865 368.918,37.1915 C369.077,37.5835 369.299,38.126 369.57,38.7455 C367.5315,39.026 365.3775,39.276 363.0925,39.4855 C344.168,41.226 296.904,44.2885 256.0495,46.7455 C256.204,46.0825 256.342,45.5105 256.456,45.0485 L256.502,44.8575 L255.9775,44.738 L255.9335,44.919 C255.8105,45.4195 255.66,46.0425 255.4885,46.7795 C224.137,48.663 196.6645,50.1855 188.845,50.4695 C170.2365,51.148 163.2905,50.949 163.25,50.947 L163.2315,51.124 L163.2275,50.944 L163.06,50.9485 L162.9105,51.2235 L162.993,51.356 C163.019,51.398 163.041,51.4335 163.2385,51.46 L163.2395,51.483 L163.2385,51.46 C163.528,51.5 164.195,51.522 165.8045,51.522 C166.6355,51.522 167.7185,51.5165 169.131,51.5045 C172.8435,51.4705 179.281,51.3575 188.865,51.0085 C196.673,50.7245 224.0715,49.2065 255.3625,47.3275 C253.6665,54.7085 250.2085,71.83 249.4575,91.456 C248.6295,113.09 249.7195,122.685 250.016,124.812 C233.188,125.138 218.8745,125.403 218.565,125.4085 L99.549,128.0415 L99.561,128.5795 L218.576,125.9465 C219.2455,125.9345 285.713,124.7015 300.998,124.2785 C316.685,123.843 318.4075,122.947 331.6895,108.2985 C345.143,93.4625 371.9105,57.398 375.2415,52.686 C378.323,48.331 377.692,47.5555 375.2335,45.761 C374.9575,45.559 374.659,45.341 374.342,45.097 C372.687,43.822 371.287,41.2215 370.3535,39.181 C396.5475,35.429 402.8505,26.343 403.5265,25.2385 L403.3145,25.0705 L403.0675,24.9565 Z M374.012,45.523 C374.3335,45.7705 374.6365,45.9915 374.916,46.1945 C377.129,47.81 377.7235,48.244 374.801,52.375 C371.4745,57.0835 344.727,93.117 331.291,107.9355 C318.1535,122.424 316.4535,123.31 300.9825,123.74 C292.8255,123.9655 270.089,124.4215 250.557,124.8005 C250.2815,122.875 249.157,113.3625 249.9945,91.4775 C250.7495,71.752 254.2435,54.568 255.9215,47.2925 C296.82,44.833 344.19,41.764 363.1405,40.022 C365.4905,39.8055 367.7045,39.5475 369.797,39.257 C370.754,41.369 372.228,44.1485 374.012,45.523 Z" fill="#B6B8BA"></path>
                    <path d="M195.941,10.736 C235.3525,-0.9475 274.688,0.3905 295.82,1.1085 L298.5345,1.2 C298.9785,1.2165 343.5635,3.1815 397.748,22.1545 C398.012,22.273 398.275,22.3925 398.537,22.5105 L398.8175,22.901 C398.888,22.85 398.951,22.786 399.0175,22.7275 C428.313,35.935 454.275,47.2925 454.5375,47.4075 L454.753,46.915 C454.491,46.8 428.646,35.4935 399.4115,22.3165 C400.0855,21.4785 400.4655,20.3055 400.732,19.4655 C400.8335,19.1445 400.9605,18.7455 401.026,18.6685 L400.8305,18.483 L400.637,18.2955 C400.4965,18.441 400.4025,18.7245 400.2185,19.3025 C399.9535,20.1405 399.57,21.3325 398.905,22.0865 C398.5855,21.943 398.2675,21.7995 397.948,21.6555 C343.6605,2.645 299.001,0.6795 298.5545,0.662 L295.8385,0.5705 C274.676,-0.15 235.2825,-1.489 195.7885,10.22 C154.9545,22.3265 123.6385,47.8895 123.327,48.146 L123.6695,48.5615 C123.9795,48.305 155.211,22.8105 195.941,10.736 Z" fill="#B6B8BA"></path>
                    <path d="M0.302,78.377 L0.343,78.914 C0.4605,78.905 12.146,78.0225 15.3475,78.4975 C18.5605,78.9705 24.392,80.612 24.4505,80.6285 L24.5965,80.109 C24.5375,80.0935 18.6735,78.443 15.426,77.9645 C12.166,77.481 0.7855,78.3405 0.302,78.377 Z" fill="#A3A5A8"></path>
                </g>
                <g transform="translate(33.000000, 77.500000)">
                    <ellipse id="Oval" fill="#222223" transform="translate(43.751413, 43.217034) rotate(-1.060063) translate(-43.751413, -43.217034) " cx="43.7514131" cy="43.2170345" rx="42.7427666" ry="42.3907768"></ellipse>
                    <path d="M75.8515,42.627 C75.526,25.0525 60.8965,11.071 43.176,11.4 C25.4555,11.729 11.3545,26.2415 11.68,43.816 C12.006,61.3915 26.6355,75.373 44.356,75.0445 C62.076,74.7155 76.1775,60.2015 75.8515,42.627 Z" id="Shape" fill="url(#linearGradient-1)"></path>
                    <path d="M35.106,41.699 C35.759,41.3575 36.209,38.96 34.7035,37.7515 C33.1975,36.543 25.6955,31.9845 23.6285,31.61 C21.5615,31.2375 18.9225,31.1215 19.0795,30.7065 C19.211,30.3585 19.1385,28.331 19.2565,27.59 C18.6035,29.1005 14.842,36.697 14.3995,40.5175 C14.3005,41.3725 24.3095,41.653 27.9375,41.7505 C31.565,41.848 34.454,42.0415 35.106,41.699 Z M19.3465,27.322 C19.3075,27.3495 19.279,27.448 19.2565,27.5895 C19.337,27.4025 19.373,27.303 19.3465,27.322 Z M51.7365,40.814 L51.7425,41.143 C53.891,41.4335 54.9165,43.3915 58.9565,43.482 C62.9955,43.5725 71.674,40.445 71.674,40.445 C71.674,40.445 71.674,40.445 73.1885,42.1475 C73.384,39.3415 70.4055,29.8375 70.158,29.841 C69.9115,29.8455 67.22,31.379 63.708,33.0925 C60.1965,34.806 52.5555,40.551 51.7365,40.814 Z M44.5405,34.931 C46.5785,33.741 47.788,32.317 48.455,28.267 C49.122,24.2155 49.831,18.0215 49.831,18.0215 C49.831,18.0215 49.5515,16.297 50.2885,16.035 C51.0255,15.7745 52.6765,15.908 52.9235,15.9035 C53.1705,15.899 45.7005,13.0695 38.076,15.191 C37.282,15.411 42.4365,32.5815 42.701,33.4815 C42.9645,34.385 42.502,36.123 44.5405,34.931 Z M37.5805,50.7185 C36.668,50.406 34.795,51.5945 32.525,53.614 C30.255,55.6335 24.213,63.163 24.213,63.163 C25.569,65.198 32.319,69.194 32.319,69.194 C32.319,69.194 38.2075,53.426 38.8425,52.097 C39.4775,50.7675 38.493,51.0315 37.5805,50.7185 Z M54.1155,44.6435 C51.9575,43.7775 47.889,42.204 48.368,41.371 C48.8475,40.538 49.405,39.4565 51.2855,38.6795 C53.1665,37.904 54.1215,36.072 54.8475,35.2345 C55.5735,34.397 66.349,24.392 66.349,24.392 C66.349,24.392 59.9795,18.6575 57.493,17.8795 C54.0815,25.0305 48.8985,34.438 47.1165,36.1205 C45.3355,37.801 42.914,40.565 42.301,38.5995 C41.6875,36.633 40.459,32.617 38.0225,30.107 C35.5865,27.598 32.541,18.9195 32.541,18.9195 L34.872,15.7435 C34.872,15.7435 26.128,19.779 22.815,23.302 C27.5905,27.499 36.7185,35.3225 37.94,39.009 C39.162,42.6945 40.084,43.5025 38.2715,43.5355 C36.4595,43.5685 31.85,43.901 31.85,43.901 C31.85,43.901 27.7695,46.0375 22.909,46.1285 C18.048,46.218 14.7645,46.9385 14.7695,47.1845 C14.774,47.431 18.051,55.283 18.739,56.834 C25.502,52.672 32.365,49.414 33.672,48.812 C34.9795,48.211 37.6825,47.338 39.831,47.6265 C41.979,47.916 43.0475,47.7315 42.655,48.811 C42.4745,49.307 40.53,54.207 40.7435,56.841 C40.9565,59.474 39.4815,68.813 39.3235,69.1455 C39.1645,69.479 38.705,71.383 38.705,71.383 L48.681,71.6115 C48.681,71.6115 45.1065,56.596 45.652,54.9375 C46.1985,53.278 47.073,47.082 47.816,47.1495 C48.5585,47.218 52.6555,50.357 53.154,50.5955 C53.6525,50.832 55.6175,50.137 57.6195,51.4175 C59.621,52.699 68.187,56.9085 68.8525,57.2255 C69.5175,57.5425 73.013,50.473 73.306,48.491 C69.009,47.8295 56.2735,45.5105 54.1155,44.6435 Z M49.597,50.4425 C49.354,50.521 47.2365,52.4765 48.726,55.7655 C50.2155,59.0555 56.36,68.4335 56.36,68.4335 C56.36,68.4335 61.628,66.3455 65.4,63.368 C60.893,59.7245 53.158,52.6225 51.8655,51.7275 C51.866,51.7275 50.1045,50.279 49.597,50.4425 Z" id="Shape" fill="#414042"></path>
                    <path d="M42.074,42.1995 L45.771,42.131 C45.771,42.131 46.36,43.0445 45.7,43.058 C45.0395,43.07 44.69,43.208 44.69,43.208 L44.7425,46.0255 C44.7425,46.0255 43.574,47.147 43.548,45.7395 C43.522,44.331 43.546,43.2735 43.546,43.2735 L42.2225,43.122 C42.2235,43.122 41.1985,42.48 42.074,42.1995 Z" id="Shape" fill="#B1B3B6"></path>
                </g>
                <g transform="translate(371.500000, 78.000000)" id="Shape">
                    <path d="M85.904,41.9305 C85.471,18.5215 65.9855,-0.1005 42.383,0.338 C18.78,0.7745 -0.003,20.105 0.431,43.5145 C0.864,66.9235 20.351,85.544 43.954,85.1075 C67.555,84.669 86.338,65.339 85.904,41.9305 Z" fill="#222223"></path>
                    <path d="M75.2545,42.127 C74.9275,24.5525 60.2985,10.571 42.5775,10.9 C24.8575,11.229 10.7565,25.7415 11.0825,43.316 C11.4085,60.8915 26.037,74.873 43.7575,74.5445 C61.4775,74.2155 75.5795,59.7015 75.2545,42.127 Z" fill="url(#linearGradient-2)"></path>
                    <path d="M34.508,41.199 C35.161,40.8575 35.6115,38.46 34.1045,37.2515 C32.5985,36.043 25.097,31.4845 23.03,31.11 C20.963,30.7375 18.3235,30.6215 18.4815,30.2065 C18.612,29.8585 18.54,27.831 18.657,27.09 C18.005,28.6005 14.243,36.197 13.8015,40.0175 C13.702,40.8725 23.7115,41.153 27.339,41.2505 C30.967,41.348 33.855,41.5415 34.508,41.199 Z M18.749,26.822 C18.7105,26.8495 18.6805,26.948 18.6575,27.0895 C18.739,26.9025 18.7755,26.803 18.749,26.822 Z M51.1385,40.314 L51.144,40.643 C53.293,40.9335 54.318,42.8915 58.3575,42.982 C62.398,43.0725 71.076,39.945 71.076,39.945 C71.076,39.945 71.076,39.945 72.5905,41.6475 C72.785,38.8415 69.8065,29.3375 69.56,29.341 C69.3125,29.3455 66.6225,30.879 63.11,32.5925 C59.598,34.306 51.9575,40.051 51.1385,40.314 Z M43.943,34.431 C45.9805,33.241 47.189,31.817 47.8565,27.767 C48.524,23.7155 49.233,17.5215 49.233,17.5215 C49.233,17.5215 48.9535,15.797 49.6905,15.535 C50.4275,15.2745 52.078,15.408 52.3255,15.4035 C52.573,15.399 45.102,12.5695 37.479,14.691 C36.6835,14.911 41.8385,32.0815 42.1025,32.9815 C42.3665,33.885 41.9035,35.623 43.943,34.431 Z M36.9825,50.2185 C36.07,49.906 34.196,51.0945 31.927,53.114 C29.6575,55.1335 23.6145,62.663 23.6145,62.663 C24.97,64.698 31.7215,68.694 31.7215,68.694 C31.7215,68.694 37.609,52.926 38.2445,51.597 C38.8795,50.2675 37.895,50.5315 36.9825,50.2185 Z M53.5175,44.1435 C51.3585,43.2775 47.291,41.704 47.769,40.871 C48.2495,40.038 48.8065,38.9565 50.688,38.1795 C52.5685,37.404 53.523,35.572 54.249,34.7345 C54.975,33.897 65.751,23.892 65.751,23.892 C65.751,23.892 59.3815,18.1575 56.895,17.3795 C53.4835,24.5305 48.3005,33.938 46.5185,35.6205 C44.7375,37.301 42.316,40.065 41.7025,38.0995 C41.0895,36.133 39.8605,32.117 37.4245,29.607 C34.9875,27.098 31.9425,18.4195 31.9425,18.4195 L34.2745,15.2435 C34.2745,15.2435 25.53,19.279 22.2165,22.802 C26.9925,26.999 36.1195,34.8225 37.3425,38.509 C38.5635,42.1945 39.486,43.0025 37.673,43.0355 C35.861,43.0685 31.252,43.401 31.252,43.401 C31.252,43.401 27.171,45.5375 22.312,45.6285 C17.4495,45.718 14.1675,46.4385 14.1715,46.6845 C14.176,46.931 17.453,54.783 18.14,56.334 C24.9035,52.172 31.767,48.914 33.074,48.312 C34.381,47.711 37.0855,46.838 39.232,47.1265 C41.381,47.416 42.449,47.2315 42.057,48.311 C41.877,48.807 39.9325,53.707 40.1445,56.341 C40.359,58.974 38.884,68.313 38.725,68.6455 C38.566,68.979 38.1075,70.883 38.1075,70.883 L48.083,71.1115 C48.083,71.1115 44.509,56.096 45.0545,54.4375 C45.6005,52.778 46.4755,46.582 47.219,46.6495 C47.9615,46.718 52.058,49.857 52.555,50.0955 C53.0545,50.332 55.02,49.637 57.022,50.9175 C59.023,52.199 67.5895,56.4085 68.256,56.7255 C68.92,57.0425 72.4155,49.973 72.7085,47.991 C68.4115,47.3295 55.675,45.0105 53.5175,44.1435 Z M48.9985,49.9425 C48.7565,50.021 46.6385,51.9765 48.128,55.2655 C49.6185,58.5555 55.7625,67.9335 55.7625,67.9335 C55.7625,67.9335 61.0305,65.8455 64.802,62.868 C60.2955,59.2245 52.5595,52.1225 51.267,51.2275 C51.267,51.2275 49.507,49.779 48.9985,49.9425 Z" fill="#414042"></path>
                    <path d="M41.476,41.6995 L45.174,41.631 C45.174,41.631 45.763,42.5445 45.102,42.558 C44.4425,42.57 44.092,42.708 44.092,42.708 L44.145,45.5255 C44.145,45.5255 42.977,46.647 42.9505,45.2395 C42.924,43.831 42.9485,42.7735 42.9485,42.7735 L41.625,42.622 C41.625,42.622 40.6,41.98 41.476,41.6995 Z" fill="#B1B3B6"></path>
                </g>
            </g>
            <path d="M190,46 C189.230832,46 174,48.5499022 174,48.5499022 C174,48.5499022 188.615196,49 189.230832,49 C189.845966,49.0004892 190,46 190,46 Z" id="Shape" fill="#FFFFFF"></path>
            <path d="M189.997091,51.4706874 C190.25191,50.8891416 173.679972,50.8566111 173.209222,51.3170432 C172.738472,51.7774754 173.209222,55 173.209222,55 C173.209222,55 172.424298,51.7774754 176.818136,51.7774754 C181.211462,51.7774754 189.526341,52.5451959 189.997091,51.4706874 Z" id="Shape" fill="#FFFFFF"></path>
            <path d="M186.978464,39.6421507 C187.613354,39.9066101 174,47 174,47 L178.325819,39.4918006 C178.325819,39.4918006 183.733974,38.2909588 186.978464,39.6421507 Z" id="Shape" fill="#FFFFFF"></path>
        </g>
    </g>
</svg>